<?xml version="1.0" encoding="UTF-8"?>
<svg width="287px" height="40px" viewBox="0 0 287 40" version="1.1" xmlns="http://www.w3.org/2000/svg" xmlns:xlink="http://www.w3.org/1999/xlink">
    <!-- Generator: Sketch 48.2 (47327) - http://www.bohemiancoding.com/sketch -->
    <title>Group 3</title>
    <desc>Created with Sketch.</desc>
    <defs>
        <rect id="path-1" x="0" y="0" width="40" height="40" rx="4"></rect>
    </defs>
    <g id="Page-1" stroke="none" stroke-width="1" fill="none" fill-rule="evenodd">
        <g id="Group-3" transform="translate(0.000000, -3.000000)">
            <path d="M77.232,30.928 C76.623997,31.9306717 75.7280059,32.7306637 74.544,33.328 C73.3599941,33.9253363 71.9253418,34.224 70.24,34.224 C67.7013206,34.224 65.6106749,33.6053395 63.968,32.368 C62.3253251,31.1306605 61.4293341,29.4026778 61.28,27.184 L67.104,27.184 C67.1893338,28.0373376 67.4933307,28.7093309 68.016,29.2 C68.5386693,29.6906691 69.2053293,29.936 70.016,29.936 C70.7200035,29.936 71.2746646,29.7440019 71.68,29.36 C72.0853354,28.9759981 72.288,28.4640032 72.288,27.824 C72.288,27.2479971 72.1013352,26.7680019 71.728,26.384 C71.3546648,25.9999981 70.8906694,25.6853346 70.336,25.44 C69.7813306,25.1946654 69.0133382,24.901335 68.032,24.56 C66.6026595,24.0693309 65.4346712,23.594669 64.528,23.136 C63.6213288,22.677331 62.8426699,21.9946712 62.192,21.088 C61.5413301,20.1813288 61.216,19.0026739 61.216,17.552 C61.216,16.2079933 61.5573299,15.0453382 62.24,14.064 C62.9226701,13.0826618 63.8666606,12.3306693 65.072,11.808 C66.2773394,11.2853307 67.6586589,11.024 69.216,11.024 C71.7333459,11.024 73.7333259,11.6213274 75.216,12.816 C76.6986741,14.0106726 77.535999,15.6533229 77.728,17.744 L71.808,17.744 C71.7013328,16.9973296 71.4293355,16.4053355 70.992,15.968 C70.5546645,15.5306645 69.9626704,15.312 69.216,15.312 C68.5759968,15.312 68.0586686,15.482665 67.664,15.824 C67.2693314,16.165335 67.072,16.6666634 67.072,17.328 C67.072,17.861336 67.2479982,18.3146648 67.6,18.688 C67.9520018,19.0613352 68.394664,19.3653322 68.928,19.6 C69.461336,19.8346678 70.2293283,20.1333315 71.232,20.496 C72.6826739,20.9866691 73.8666621,21.4719976 74.784,21.952 C75.7013379,22.4320024 76.4906634,23.1306621 77.152,24.048 C77.8133366,24.9653379 78.144,26.1599926 78.144,27.632 C78.144,28.8266726 77.840003,29.9253283 77.232,30.928 Z M89.156,11.376 L89.156,34 L83.684,34 L83.684,11.376 L89.156,11.376 Z M111.688,11.376 L111.688,15.728 L105.544,15.728 L105.544,34 L100.04,34 L100.04,15.728 L93.96,15.728 L93.96,11.376 L111.688,11.376 Z M121.964,15.728 L121.964,20.464 L129.612,20.464 L129.612,24.592 L121.964,24.592 L121.964,29.616 L130.572,29.616 L130.572,34 L116.492,34 L116.492,11.376 L130.572,11.376 L130.572,15.728 L121.964,15.728 Z M150.548,26.064 L150.548,34 L145.076,34 L145.076,11.376 L153.94,11.376 C156.628013,11.376 158.675993,12.04266 160.084,13.376 C161.492007,14.70934 162.196,16.5066554 162.196,18.768 C162.196,20.176007 161.881336,21.4293278 161.252,22.528 C160.622664,23.6266722 159.68934,24.4906635 158.452,25.12 C157.21466,25.7493365 155.710676,26.064 153.94,26.064 L150.548,26.064 Z M156.628,18.768 C156.628,16.7839901 155.529344,15.792 153.332,15.792 L150.548,15.792 L150.548,21.68 L153.332,21.68 C155.529344,21.68 156.628,20.709343 156.628,18.768 Z M181.4,29.872 L172.92,29.872 L171.512,34 L165.752,34 L174.04,11.536 L180.344,11.536 L188.632,34 L182.808,34 L181.4,29.872 Z M179.992,25.712 L177.176,17.392 L174.328,25.712 L179.992,25.712 Z M198.716,29.808 L206.012,29.808 L206.012,34 L193.244,34 L193.244,11.376 L198.716,11.376 L198.716,29.808 Z M216.512,15.728 L216.512,20.464 L224.16,20.464 L224.16,24.592 L216.512,24.592 L216.512,29.616 L225.12,29.616 L225.12,34 L211.04,34 L211.04,11.376 L225.12,11.376 L225.12,15.728 L216.512,15.728 Z M246.98,11.376 L246.98,15.728 L240.836,15.728 L240.836,34 L235.332,34 L235.332,15.728 L229.252,15.728 L229.252,11.376 L246.98,11.376 Z M268.04,11.376 L268.04,15.728 L261.896,15.728 L261.896,34 L256.392,34 L256.392,15.728 L250.312,15.728 L250.312,11.376 L268.04,11.376 Z M278.316,15.728 L278.316,20.464 L285.964,20.464 L285.964,24.592 L278.316,24.592 L278.316,29.616 L286.924,29.616 L286.924,34 L272.844,34 L272.844,11.376 L286.924,11.376 L286.924,15.728 L278.316,15.728 Z" id="SITE-PALETTE" fill="#3D3D3D"></path>
            <g id="Group" transform="translate(0.000000, 3.000000)">
                <g id="Group-2">
                    <mask id="mask-2" fill="white">
                        <use xlink:href="#path-1"></use>
                    </mask>
                    <use id="Mask" fill="#D8D8D8" xlink:href="#path-1"></use>
                    <g mask="url(#mask-2)" id="Rectangle-2">
                        <rect fill="#8C61FF" x="0" y="0" width="20" height="20"></rect>
                        <rect fill="#36C3FE" x="0" y="20" width="20" height="20"></rect>
                        <rect fill="#6592FE" x="20" y="20" width="20" height="20"></rect>
                        <rect fill="#6059F7" x="20" y="0" width="20" height="20"></rect>
                    </g>
                </g>
            </g>
        </g>
    </g>
</svg>